<mxfile host="app.diagrams.net" modified="2023-03-31T02:51:52.625Z" agent="Mozilla/5.0 (Windows NT 10.0; Win64; x64) AppleWebKit/537.36 (KHTML, like Gecko) Chrome/111.0.0.0 Safari/537.36" etag="On6vTBVAFJl8tK8v6_Yi" version="21.1.2" type="github">
  <diagram name="Página-1" id="GKivtmOMh9r8lYqvkUt7">
    <mxGraphModel dx="913" dy="505" grid="1" gridSize="10" guides="1" tooltips="1" connect="1" arrows="1" fold="1" page="1" pageScale="1" pageWidth="827" pageHeight="1169" math="0" shadow="0">
      <root>
        <mxCell id="0" />
        <mxCell id="1" parent="0" />
        <mxCell id="iSw_kogIlrVRXk0EEokL-4" style="edgeStyle=orthogonalEdgeStyle;rounded=0;orthogonalLoop=1;jettySize=auto;html=1;" edge="1" parent="1" source="iSw_kogIlrVRXk0EEokL-1">
          <mxGeometry relative="1" as="geometry">
            <mxPoint x="170" y="350" as="targetPoint" />
          </mxGeometry>
        </mxCell>
        <mxCell id="iSw_kogIlrVRXk0EEokL-23" style="edgeStyle=orthogonalEdgeStyle;rounded=0;orthogonalLoop=1;jettySize=auto;html=1;" edge="1" parent="1" source="iSw_kogIlrVRXk0EEokL-1">
          <mxGeometry relative="1" as="geometry">
            <mxPoint x="230" y="200" as="targetPoint" />
            <Array as="points">
              <mxPoint x="65" y="200" />
            </Array>
          </mxGeometry>
        </mxCell>
        <mxCell id="iSw_kogIlrVRXk0EEokL-1" value="Cliente Fofinho" style="shape=umlActor;verticalLabelPosition=bottom;verticalAlign=top;html=1;outlineConnect=0;" vertex="1" parent="1">
          <mxGeometry x="50" y="320" width="30" height="60" as="geometry" />
        </mxCell>
        <mxCell id="iSw_kogIlrVRXk0EEokL-24" style="edgeStyle=orthogonalEdgeStyle;rounded=0;orthogonalLoop=1;jettySize=auto;html=1;entryX=0.5;entryY=0;entryDx=0;entryDy=0;" edge="1" parent="1" source="iSw_kogIlrVRXk0EEokL-5" target="iSw_kogIlrVRXk0EEokL-8">
          <mxGeometry relative="1" as="geometry" />
        </mxCell>
        <mxCell id="iSw_kogIlrVRXk0EEokL-5" value="selecionar cinema" style="ellipse;whiteSpace=wrap;html=1;" vertex="1" parent="1">
          <mxGeometry x="380" y="180" width="120" height="80" as="geometry" />
        </mxCell>
        <mxCell id="iSw_kogIlrVRXk0EEokL-7" style="edgeStyle=orthogonalEdgeStyle;rounded=0;orthogonalLoop=1;jettySize=auto;html=1;" edge="1" parent="1" source="iSw_kogIlrVRXk0EEokL-8">
          <mxGeometry relative="1" as="geometry">
            <mxPoint x="570" y="350" as="targetPoint" />
          </mxGeometry>
        </mxCell>
        <mxCell id="iSw_kogIlrVRXk0EEokL-8" value="selecionar filme" style="ellipse;whiteSpace=wrap;html=1;" vertex="1" parent="1">
          <mxGeometry x="380" y="310" width="120" height="80" as="geometry" />
        </mxCell>
        <mxCell id="iSw_kogIlrVRXk0EEokL-13" style="edgeStyle=orthogonalEdgeStyle;rounded=0;orthogonalLoop=1;jettySize=auto;html=1;" edge="1" parent="1" source="iSw_kogIlrVRXk0EEokL-10">
          <mxGeometry relative="1" as="geometry">
            <mxPoint x="630" y="420" as="targetPoint" />
          </mxGeometry>
        </mxCell>
        <mxCell id="iSw_kogIlrVRXk0EEokL-10" value="selecionar sessão" style="ellipse;whiteSpace=wrap;html=1;" vertex="1" parent="1">
          <mxGeometry x="570" y="310" width="120" height="80" as="geometry" />
        </mxCell>
        <mxCell id="iSw_kogIlrVRXk0EEokL-16" style="edgeStyle=orthogonalEdgeStyle;rounded=0;orthogonalLoop=1;jettySize=auto;html=1;entryX=1;entryY=0.375;entryDx=0;entryDy=0;entryPerimeter=0;" edge="1" parent="1" source="iSw_kogIlrVRXk0EEokL-12" target="iSw_kogIlrVRXk0EEokL-15">
          <mxGeometry relative="1" as="geometry" />
        </mxCell>
        <mxCell id="iSw_kogIlrVRXk0EEokL-12" value="selecionar tipo de ingresso" style="ellipse;whiteSpace=wrap;html=1;" vertex="1" parent="1">
          <mxGeometry x="570" y="430" width="120" height="80" as="geometry" />
        </mxCell>
        <mxCell id="iSw_kogIlrVRXk0EEokL-19" style="edgeStyle=orthogonalEdgeStyle;rounded=0;orthogonalLoop=1;jettySize=auto;html=1;entryX=1;entryY=0.5;entryDx=0;entryDy=0;" edge="1" parent="1" source="iSw_kogIlrVRXk0EEokL-15" target="iSw_kogIlrVRXk0EEokL-18">
          <mxGeometry relative="1" as="geometry" />
        </mxCell>
        <mxCell id="iSw_kogIlrVRXk0EEokL-15" value="selecionar metódo de pagamento" style="ellipse;whiteSpace=wrap;html=1;" vertex="1" parent="1">
          <mxGeometry x="380" y="440" width="120" height="80" as="geometry" />
        </mxCell>
        <mxCell id="iSw_kogIlrVRXk0EEokL-22" style="edgeStyle=orthogonalEdgeStyle;rounded=0;orthogonalLoop=1;jettySize=auto;html=1;" edge="1" parent="1" source="iSw_kogIlrVRXk0EEokL-18" target="iSw_kogIlrVRXk0EEokL-1">
          <mxGeometry relative="1" as="geometry">
            <mxPoint x="60" y="470" as="targetPoint" />
          </mxGeometry>
        </mxCell>
        <mxCell id="iSw_kogIlrVRXk0EEokL-18" value="ingresso/recibo" style="ellipse;whiteSpace=wrap;html=1;" vertex="1" parent="1">
          <mxGeometry x="190" y="440" width="120" height="80" as="geometry" />
        </mxCell>
        <mxCell id="iSw_kogIlrVRXk0EEokL-29" style="edgeStyle=orthogonalEdgeStyle;rounded=0;orthogonalLoop=1;jettySize=auto;html=1;entryX=0;entryY=0.5;entryDx=0;entryDy=0;" edge="1" parent="1" source="iSw_kogIlrVRXk0EEokL-25" target="iSw_kogIlrVRXk0EEokL-8">
          <mxGeometry relative="1" as="geometry" />
        </mxCell>
        <mxCell id="iSw_kogIlrVRXk0EEokL-25" value="MAQUINA DIGITAL" style="ellipse;whiteSpace=wrap;html=1;" vertex="1" parent="1">
          <mxGeometry x="190" y="310" width="120" height="80" as="geometry" />
        </mxCell>
        <mxCell id="iSw_kogIlrVRXk0EEokL-28" style="edgeStyle=orthogonalEdgeStyle;rounded=0;orthogonalLoop=1;jettySize=auto;html=1;entryX=0;entryY=0.5;entryDx=0;entryDy=0;" edge="1" parent="1" source="iSw_kogIlrVRXk0EEokL-26" target="iSw_kogIlrVRXk0EEokL-8">
          <mxGeometry relative="1" as="geometry">
            <mxPoint x="350" y="350" as="targetPoint" />
            <Array as="points">
              <mxPoint x="340" y="210" />
              <mxPoint x="340" y="350" />
            </Array>
          </mxGeometry>
        </mxCell>
        <mxCell id="iSw_kogIlrVRXk0EEokL-26" value="Funcionario" style="shape=umlActor;verticalLabelPosition=bottom;verticalAlign=top;html=1;outlineConnect=0;" vertex="1" parent="1">
          <mxGeometry x="260" y="180" width="30" height="60" as="geometry" />
        </mxCell>
      </root>
    </mxGraphModel>
  </diagram>
</mxfile>
